<svg width="60" height="40" viewBox="0 0 62 42" fill="none" xmlns="http://www.w3.org/2000/svg">
<path d="M31 6.06329V41H61V6.06329H31Z" fill="white"/>
<path d="M1 1L1.08321 0.506973L0.5 0.40854V1H1ZM1 34.924H0.5V35.3329L0.900749 35.4141L1 34.924ZM31 41L30.9007 41.4901L30.9499 41.5H31V41ZM61 6.06329H61.5V5.56329H61V6.06329ZM61 41V41.5H61.5V41H61ZM0.5 1V34.924H1.5V1H0.5ZM0.916789 1.49303L30.9168 6.55632L31.0832 5.57026L1.08321 0.506973L0.916789 1.49303ZM0.900749 35.4141L30.9007 41.4901L31.0993 40.5099L1.09925 34.434L0.900749 35.4141ZM31.5 41V6.06329H30.5V41H31.5ZM31 6.56329H61V5.56329H31V6.56329ZM60.5 6.06329V41H61.5V6.06329H60.5ZM61 40.5H31V41.5H61V40.5ZM6.51136 27.316L24.8164 30.354L24.9802 29.3675L6.67508 26.3295L6.51136 27.316ZM6.51136 18.7084L24.8164 21.7464L24.9802 20.7599L6.67508 17.7219L6.51136 18.7084ZM6.51136 9.59452L24.8164 12.6325L24.9802 11.646L6.67508 8.60801L6.51136 9.59452Z" fill="white"/>
</svg>
