<svg width="136" height="149" viewBox="0 0 136 149" fill="none" xmlns="http://www.w3.org/2000/svg">
<g filter="url(#filter0_d_7_98)">
<path d="M52.1164 5.71494C51.6202 5.75086 50.8588 5.89706 50.4992 6.02177C49.5559 6.32537 47.6006 7.96991 47.0585 8.92007C46.7493 9.43586 33.7204 48.4629 33.4755 49.6269C33.4642 49.6884 30.0546 49.0926 25.9107 48.3298C19.0141 47.0603 18.2332 46.9802 17.1009 47.3127C14.7897 48.0645 12.8679 50.1924 12.4431 52.5005C11.9786 55.0239 13.5546 58.4321 15.7147 59.4979C16.5039 59.8658 20.4828 60.6937 27.8051 61.9779L38.7147 63.8907L40.1221 63.2271C42.9723 61.8745 42.7463 62.4374 50.0291 40.3291C53.6359 29.3799 56.6194 20.3205 56.6421 20.1974C56.6648 20.0743 65.6264 21.5966 76.519 23.6017C87.4411 25.6122 96.3448 27.283 96.3335 27.3445C96.3222 27.4061 95.986 34.8847 95.5681 43.971C95.1503 53.0573 94.7971 60.6283 94.7744 60.7514C94.7518 60.8745 86.0565 59.4012 75.4896 57.4561C57.0196 54.0562 56.1851 53.9344 54.988 54.2868C52.6769 55.0386 50.755 57.1665 50.3302 59.4746C49.8713 61.9673 51.4417 65.4062 53.5187 66.4248C54.2783 66.7874 65.0002 68.8883 87.318 72.9965C118.309 78.701 120.09 78.9972 121.317 78.6503C124.661 77.7706 126.831 74.1292 126.018 70.7342C125.699 69.3074 124.276 67.2318 123.182 66.5215C122.826 66.2968 119.178 65.4981 115.123 64.7517C109.47 63.711 107.711 63.2918 107.678 62.9677C107.624 62.7667 108.014 53.1662 108.542 41.6504C109.065 30.1653 109.389 20.4254 109.285 19.9927C108.969 18.8845 107.7 16.9647 106.802 16.1947C106.093 15.5553 103.612 15.0668 79.5298 10.5702C64.9669 7.8895 52.6423 5.68447 52.1164 5.71494Z" fill="white"/>
<path d="M32.6083 77.1159C27.7982 77.3122 23.7849 78.8325 19.7604 81.9097C16.6994 84.2415 14.0604 87.6056 12.5632 91.0843C11.4544 93.6165 10.4574 99.0327 10.5918 101.794C10.7396 105.48 12.0921 109.769 14.0743 112.966C24.423 129.729 48.6999 126.021 54.5043 106.791C55.2182 104.409 55.3933 104.123 56.3989 103.481C57.7755 102.652 60.508 102.105 62.0176 102.383C63.5567 102.666 65.8618 104.109 67.032 105.565C67.9037 106.648 67.9346 106.813 67.6344 108.444C66.3101 115.804 69.9806 124.625 76.4513 129.539C82.9402 134.519 90.8633 135.532 98.1909 132.3C114.172 125.283 117.245 103.768 103.925 92.5026C100.319 89.4843 94.7101 87.3701 91.7887 87.9459C90.1066 88.2726 88.1205 89.7524 87.3171 91.2908C86.0011 93.7848 86.5097 97.5055 88.4691 99.3298C88.9931 99.808 90.4234 100.517 91.8876 101.041C94.9345 102.111 96.7421 103.43 98.0597 105.581C101.457 111.234 98.3785 118.812 92.0136 120.472C86.1325 121.999 80.4635 117.551 80.2715 111.279C80.2468 110.416 80.4387 108.542 80.7049 107.096C81.3337 103.68 81.0345 102.479 78.876 99.4093C74.7504 93.5592 70.3336 90.4554 64.5617 89.3929C61.2466 88.7827 58.6879 88.8844 55.5323 89.7352L53.5032 90.2844L52.8261 89.1417C52.4545 88.5005 52.1364 87.9011 52.1591 87.778C52.1817 87.6549 51.351 86.5157 50.3187 85.3075C48.2119 82.788 45.3619 80.4817 42.8636 79.2582C40.4187 78.0763 35.2023 76.9889 32.6083 77.1159ZM38.546 92.24C43.8842 95.9907 43.9562 104.245 38.6805 108.3C33.1522 112.564 25.5224 109.792 23.6872 102.804C23.0534 100.429 23.7219 96.7973 25.16 94.8031C27.7203 91.2018 31.9282 89.6219 35.8391 90.8191C36.479 91.0005 37.702 91.6711 38.546 92.24Z" fill="white"/>
</g>
<defs>
<filter id="filter0_d_7_98" x="6.57959" y="5.7146" width="123.61" height="142.447" filterUnits="userSpaceOnUse" color-interpolation-filters="sRGB">
<feFlood flood-opacity="0" result="BackgroundImageFix"/>
<feColorMatrix in="SourceAlpha" type="matrix" values="0 0 0 0 0 0 0 0 0 0 0 0 0 0 0 0 0 0 127 0" result="hardAlpha"/>
<feOffset dy="10"/>
<feGaussianBlur stdDeviation="2"/>
<feColorMatrix type="matrix" values="0 0 0 0 0 0 0 0 0 0 0 0 0 0 0 0 0 0 0.25 0"/>
<feBlend mode="normal" in2="BackgroundImageFix" result="effect1_dropShadow_7_98"/>
<feBlend mode="normal" in="SourceGraphic" in2="effect1_dropShadow_7_98" result="shape"/>
</filter>
</defs>
</svg>
