<svg width="200" height="236.4820" viewBox="0 0 823 877" fill="none" xmlns="http://www.w3.org/2000/svg">
    <path d="M430.819 843.335C431.69 795.011 428.253 755.098 420.051 722.221M430.819 843.335C313.339 896.913 226.347 868.181 168.998 812.185M430.819 843.335C364.509 812.769 312.844 783.346 260.577 742M430.819 843.335C515.79 739.675 578.943 653.983 634.4 565M430.819 843.335C599.493 823.189 694.364 758.697 751.05 593M816.261 213.539C777.245 238.439 741.571 261.866 709 283.997L816.261 213.539ZM816.261 213.539C795.829 258.656 776.515 300.14 757.646 339L816.261 213.539ZM816.261 213.539C811.702 266.908 806.543 315.95 800.575 361L816.261 213.539ZM420.051 722.221C386.3 635.917 385.07 566.219 479.631 466.712M420.051 722.221C409.401 679.53 390.717 648.704 362.999 626.734C355.952 621.149 348.321 616.135 340.089 611.645C233.831 564.73 158.715 399.186 420.051 11M496.299 449.835C490.44 455.558 484.888 461.181 479.631 466.712M479.631 466.712C504.09 444.208 563.176 328.312 420.051 11M420.051 11C370.633 285.144 329.175 418.704 391.109 652.374M512 436L551 401M568 389C583.792 372.816 603.304 354.561 616.5 344M636 333.5C654.119 315.832 664.73 308.079 684.5 298M642 553.5C661.2 523.5 666 512 666 510M688.5 471C710.9 439 725.5 408.667 730 397.5M151.169 803.015C126.863 793.152 106.093 783.286 88.5 773.487M251.169 588.015C224.949 567.784 199.842 565.668 174.5 572.536M251.169 700.015C237.293 677.048 218.304 675.558 185 674.747M51 658.402C89.8514 668.188 121.09 671.838 146.5 673.387M121 596.735C87.8173 615.568 52.7743 638.621 13.1688 647.588C2.16502 667.456 1.25156 690.006 16.7894 714M26.7366 727C36.9829 738.595 51.1784 750.465 70 762.478" stroke="white" stroke-width="10"/>
</svg>