<svg width="62" height="40" viewBox="0 0 72 46" fill="none" xmlns="http://www.w3.org/2000/svg">
<path d="M39.4088 36.9258L39.4088 36.9258L32.947 43.3545L32.5997 43.7L32.2471 43.3597L26.9069 38.2049L26.9068 38.2048C25.9068 37.239 24.7969 36.2244 23.6366 35.1638C21.1167 32.8603 18.3595 30.3398 15.9759 27.6312C12.4864 23.6659 9.68714 19.1844 9.50821 14.171L9.50821 14.1709C9.25504 7.06136 14.8676 2.52856 21.2407 2.60982L21.2411 2.60982C24.0775 2.64837 26.1177 3.37922 27.9053 4.55998C29.3875 5.53905 30.6965 6.83124 32.1252 8.2417C32.2747 8.3893 32.4256 8.53819 32.578 8.68815C32.7491 8.5072 32.9182 8.3273 33.0858 8.14888C35.6293 5.4416 37.8529 3.07483 42.1741 2.57954C46.6627 2.06271 50.9572 4.10765 53.5661 7.40348C56.1842 10.7108 57.1203 15.3001 54.852 19.8405L39.4088 36.9258ZM39.4088 36.9258C40.2723 36.0665 41.2816 35.097 42.3648 34.0565C44.2214 32.2731 46.2952 30.2809 48.225 28.2773M39.4088 36.9258L48.225 28.2773M48.225 28.2773C51.0102 25.3871 53.5777 22.3928 54.852 19.8406L48.225 28.2773Z" stroke="white"/>
<path d="M40 43.7696V17M45.6277 43.7696V25.3655M50.9512 43.7696V34.3394" stroke="#FCFFFD" stroke-linecap="round"/>
<path d="M23.7191 40.405C23.4906 40.5602 23.4312 40.8711 23.5864 41.0996C23.7416 41.328 24.0525 41.3874 24.2809 41.2322L23.7191 40.405ZM40.1228 29.8673L40.4787 29.516L40.1862 29.2197L39.8419 29.4537L40.1228 29.8673ZM45.9027 35.7232L45.5468 36.0744L45.8431 36.3746L46.1889 36.1332L45.9027 35.7232ZM61.7573 25.0875C61.8056 24.8157 61.6244 24.5561 61.3525 24.5077L56.9221 23.7198C56.6502 23.6714 56.3906 23.8526 56.3422 24.1245C56.2939 24.3964 56.4751 24.656 56.747 24.7043L60.6852 25.4047L59.9848 29.3429C59.9364 29.6148 60.1176 29.8744 60.3895 29.9228C60.6614 29.9711 60.921 29.7899 60.9693 29.518L61.7573 25.0875ZM24.2809 41.2322L40.4038 30.2809L39.8419 29.4537L23.7191 40.405L24.2809 41.2322ZM39.767 30.2185L45.5468 36.0744L46.2586 35.372L40.4787 29.516L39.767 30.2185ZM46.1889 36.1332L61.5512 25.41L60.9788 24.59L45.6165 35.3132L46.1889 36.1332Z" fill="white"/>
</svg>
