<svg width="60" height="40" viewBox="0 0 65 42" fill="none" xmlns="http://www.w3.org/2000/svg">
<path d="M3 1C1.89543 1 1 1.89543 1 3V39C1 40.1046 1.89543 41 3 41H38.4805C39.5851 41 40.4805 40.1046 40.4805 39V24.2727V3C40.4805 1.89543 39.5851 1 38.4805 1H3Z" fill="white" fill-opacity="0.15"/>
<path d="M19.5953 20.9786C19.44 20.7502 19.129 20.691 18.9007 20.8463C18.6723 21.0016 18.6131 21.3125 18.7684 21.5409L19.5953 20.9786ZM64.689 5.54628C64.9046 5.37377 64.9396 5.05913 64.7671 4.8435C64.5946 4.62787 64.2799 4.59291 64.0643 4.76541L64.689 5.54628ZM26.7976 32.4594L26.3841 32.7405L26.7976 32.4594ZM29.7008 32.8965L29.3885 32.5061L29.7008 32.8965ZM0.5 3V39H1.5V3H0.5ZM3 41.5H38.4805V40.5H3V41.5ZM38.4805 0.5H3V1.5H38.4805V0.5ZM18.7684 21.5409L26.3841 32.7405L27.211 32.1782L19.5953 20.9786L18.7684 21.5409ZM40.9805 39V24.2727H39.9805V39H40.9805ZM40.9805 24.2727V3H39.9805V24.2727H40.9805ZM30.0132 33.2869L40.7929 24.6632L40.1682 23.8823L29.3885 32.5061L30.0132 33.2869ZM40.7929 24.6632L64.689 5.54628L64.0643 4.76541L40.1682 23.8823L40.7929 24.6632ZM38.4805 1.5C39.3089 1.5 39.9805 2.17157 39.9805 3H40.9805C40.9805 1.61929 39.8612 0.5 38.4805 0.5V1.5ZM38.4805 41.5C39.8612 41.5 40.9805 40.3807 40.9805 39H39.9805C39.9805 39.8284 39.3089 40.5 38.4805 40.5V41.5ZM0.5 39C0.5 40.3807 1.61929 41.5 3 41.5V40.5C2.17157 40.5 1.5 39.8284 1.5 39H0.5ZM26.3841 32.7405C27.2034 33.9454 28.8754 34.1971 30.0132 33.2869L29.3885 32.5061C28.7058 33.0522 27.7026 32.9012 27.211 32.1782L26.3841 32.7405ZM1.5 3C1.5 2.17157 2.17158 1.5 3 1.5V0.5C1.61929 0.5 0.5 1.61929 0.5 3H1.5Z" fill="white"/>
</svg>
